<svg xmlns="http://www.w3.org/2000/svg" xmlns:xlink="http://www.w3.org/1999/xlink" width="500" zoomAndPan="magnify" viewBox="0 0 375 374.999991" height="500" preserveAspectRatio="xMidYMid meet" version="1.0"><defs><g/><clipPath id="1d7da9982e"><path d="M 36 122 L 340 122 L 340 298 L 36 298 Z M 36 122 " clip-rule="nonzero"/></clipPath><clipPath id="ee7399281c"><path d="M 85.988281 42.023438 L 360.292969 147.828125 L 288.765625 333.261719 L 14.464844 227.457031 Z M 85.988281 42.023438 " clip-rule="nonzero"/></clipPath><clipPath id="7cc6818e62"><path d="M 85.988281 42.023438 L 360.292969 147.828125 L 288.765625 333.261719 L 14.464844 227.457031 Z M 85.988281 42.023438 " clip-rule="nonzero"/></clipPath><clipPath id="26319f2a45"><path d="M 337.554688 190.097656 C 344.378906 166.898438 332.71875 141.808594 310.691406 131.941406 C 293.691406 124.257812 274.871094 127.109375 261.160156 137.417969 C 254.324219 142.519531 244.871094 142.117188 238.230469 136.683594 C 233.117188 132.46875 227.128906 128.910156 220.609375 126.394531 C 201.492188 119.019531 181 121.347656 164.515625 131.089844 C 154.964844 136.765625 143.109375 136.433594 133.527344 130.867188 C 129.367188 128.386719 124.78125 126.371094 119.984375 124.894531 C 88.878906 115.265625 55.167969 130.839844 42.175781 160.644531 C 27.371094 194.496094 43.917969 233.449219 78.027344 246.605469 C 92.148438 252.050781 106.960938 252.152344 120.273438 248.050781 C 133.738281 243.882812 148.125 249.933594 154.507812 262.503906 C 161.976562 277.113281 174.988281 288.996094 192.050781 294.582031 C 223.421875 304.808594 258.019531 289.203125 271.074219 258.921875 C 272.566406 255.378906 273.753906 251.96875 274.660156 248.324219 C 277.625 236.113281 287.195312 226.828125 299.578125 224.492188 C 316.902344 221.316406 332.121094 208.714844 337.554688 190.097656 Z M 337.554688 190.097656 " clip-rule="nonzero"/></clipPath><clipPath id="8e30da496d"><path d="M 128 98 L 156 98 L 156 127 L 128 127 Z M 128 98 " clip-rule="nonzero"/></clipPath><clipPath id="6156cbd28f"><path d="M 85.988281 42.023438 L 360.292969 147.828125 L 288.765625 333.261719 L 14.464844 227.457031 Z M 85.988281 42.023438 " clip-rule="nonzero"/></clipPath><clipPath id="5cb96135c3"><path d="M 85.988281 42.023438 L 360.292969 147.828125 L 288.765625 333.261719 L 14.464844 227.457031 Z M 85.988281 42.023438 " clip-rule="nonzero"/></clipPath><clipPath id="8e7dea4f71"><path d="M 154.964844 117.671875 C 154.636719 118.519531 154.230469 119.328125 153.746094 120.097656 C 153.257812 120.867188 152.699219 121.578125 152.074219 122.238281 C 151.445312 122.898438 150.761719 123.488281 150.015625 124.011719 C 149.273438 124.535156 148.484375 124.984375 147.652344 125.351562 C 146.820312 125.71875 145.960938 126.003906 145.074219 126.203125 C 144.1875 126.402344 143.289062 126.515625 142.378906 126.535156 C 141.46875 126.558594 140.566406 126.492188 139.671875 126.335938 C 138.773438 126.179688 137.902344 125.9375 137.050781 125.613281 C 136.203125 125.285156 135.394531 124.878906 134.625 124.390625 C 133.859375 123.902344 133.144531 123.347656 132.484375 122.71875 C 131.824219 122.09375 131.234375 121.40625 130.710938 120.664062 C 130.1875 119.917969 129.742188 119.132812 129.371094 118.300781 C 129.003906 117.46875 128.71875 116.609375 128.519531 115.722656 C 128.320312 114.832031 128.210938 113.933594 128.1875 113.023438 C 128.164062 112.117188 128.230469 111.210938 128.386719 110.316406 C 128.542969 109.421875 128.785156 108.546875 129.113281 107.699219 C 129.4375 106.851562 129.847656 106.042969 130.332031 105.273438 C 130.820312 104.503906 131.375 103.789062 132.003906 103.132812 C 132.632812 102.472656 133.316406 101.882812 134.058594 101.355469 C 134.804688 100.832031 135.59375 100.386719 136.421875 100.019531 C 137.253906 99.648438 138.113281 99.367188 139.003906 99.167969 C 139.890625 98.96875 140.789062 98.855469 141.699219 98.832031 C 142.609375 98.8125 143.511719 98.878906 144.40625 99.035156 C 145.304688 99.1875 146.175781 99.429688 147.023438 99.757812 C 147.875 100.085938 148.683594 100.492188 149.449219 100.980469 C 150.21875 101.464844 150.933594 102.023438 151.59375 102.648438 C 152.25 103.277344 152.84375 103.964844 153.367188 104.707031 C 153.890625 105.449219 154.335938 106.238281 154.707031 107.070312 C 155.074219 107.902344 155.359375 108.761719 155.558594 109.648438 C 155.757812 110.535156 155.867188 111.433594 155.890625 112.34375 C 155.910156 113.253906 155.84375 114.15625 155.691406 115.054688 C 155.535156 115.949219 155.292969 116.824219 154.964844 117.671875 Z M 154.964844 117.671875 " clip-rule="nonzero"/></clipPath><clipPath id="1d653d8112"><path d="M 217 96 L 235 96 L 235 114 L 217 114 Z M 217 96 " clip-rule="nonzero"/></clipPath><clipPath id="4bdf478737"><path d="M 85.988281 42.023438 L 360.292969 147.828125 L 288.765625 333.261719 L 14.464844 227.457031 Z M 85.988281 42.023438 " clip-rule="nonzero"/></clipPath><clipPath id="10dfa6cc5c"><path d="M 85.988281 42.023438 L 360.292969 147.828125 L 288.765625 333.261719 L 14.464844 227.457031 Z M 85.988281 42.023438 " clip-rule="nonzero"/></clipPath><clipPath id="29ff2f1654"><path d="M 233.746094 107.875 C 233.550781 108.382812 233.304688 108.863281 233.015625 109.324219 C 232.726562 109.78125 232.394531 110.207031 232.019531 110.601562 C 231.644531 110.992188 231.234375 111.347656 230.792969 111.660156 C 230.347656 111.972656 229.878906 112.238281 229.382812 112.457031 C 228.886719 112.675781 228.371094 112.847656 227.84375 112.964844 C 227.3125 113.085938 226.777344 113.152344 226.234375 113.164062 C 225.691406 113.175781 225.152344 113.136719 224.617188 113.042969 C 224.082031 112.953125 223.5625 112.808594 223.058594 112.613281 C 222.550781 112.417969 222.066406 112.175781 221.609375 111.882812 C 221.152344 111.59375 220.726562 111.261719 220.332031 110.886719 C 219.9375 110.511719 219.585938 110.105469 219.273438 109.660156 C 218.960938 109.214844 218.695312 108.746094 218.472656 108.25 C 218.253906 107.753906 218.085938 107.242188 217.964844 106.710938 C 217.847656 106.183594 217.78125 105.644531 217.765625 105.101562 C 217.753906 104.558594 217.792969 104.023438 217.886719 103.488281 C 217.980469 102.953125 218.125 102.429688 218.320312 101.925781 C 218.515625 101.417969 218.757812 100.9375 219.046875 100.476562 C 219.335938 100.019531 219.671875 99.59375 220.042969 99.199219 C 220.417969 98.808594 220.828125 98.453125 221.273438 98.140625 C 221.714844 97.828125 222.183594 97.5625 222.679688 97.34375 C 223.179688 97.121094 223.691406 96.953125 224.21875 96.835938 C 224.75 96.714844 225.285156 96.648438 225.828125 96.636719 C 226.371094 96.621094 226.910156 96.664062 227.445312 96.753906 C 227.980469 96.847656 228.5 96.992188 229.007812 97.1875 C 229.511719 97.382812 229.996094 97.625 230.453125 97.914062 C 230.914062 98.207031 231.339844 98.539062 231.730469 98.914062 C 232.125 99.285156 232.476562 99.695312 232.789062 100.140625 C 233.101562 100.582031 233.367188 101.054688 233.589844 101.550781 C 233.808594 102.046875 233.976562 102.558594 234.097656 103.089844 C 234.214844 103.617188 234.28125 104.152344 234.296875 104.695312 C 234.308594 105.238281 234.269531 105.777344 234.175781 106.3125 C 234.082031 106.847656 233.941406 107.367188 233.746094 107.875 Z M 233.746094 107.875 " clip-rule="nonzero"/></clipPath><clipPath id="fb27a74474"><path d="M 291 242 L 318 242 L 318 269 L 291 269 Z M 291 242 " clip-rule="nonzero"/></clipPath><clipPath id="17d68380d2"><path d="M 85.988281 42.023438 L 360.292969 147.828125 L 288.765625 333.261719 L 14.464844 227.457031 Z M 85.988281 42.023438 " clip-rule="nonzero"/></clipPath><clipPath id="b625eaf199"><path d="M 85.988281 42.023438 L 360.292969 147.828125 L 288.765625 333.261719 L 14.464844 227.457031 Z M 85.988281 42.023438 " clip-rule="nonzero"/></clipPath><clipPath id="8339db07da"><path d="M 316.949219 260.019531 C 316.640625 260.816406 316.257812 261.578125 315.796875 262.300781 C 315.339844 263.023438 314.816406 263.695312 314.226562 264.316406 C 313.636719 264.9375 312.988281 265.492188 312.289062 265.988281 C 311.589844 266.480469 310.847656 266.898438 310.066406 267.246094 C 309.28125 267.59375 308.472656 267.863281 307.636719 268.050781 C 306.804688 268.238281 305.957031 268.339844 305.101562 268.363281 C 304.246094 268.382812 303.394531 268.320312 302.550781 268.175781 C 301.707031 268.027344 300.886719 267.800781 300.089844 267.492188 C 299.289062 267.183594 298.527344 266.800781 297.804688 266.34375 C 297.082031 265.886719 296.410156 265.359375 295.789062 264.769531 C 295.167969 264.179688 294.613281 263.535156 294.121094 262.835938 C 293.625 262.132812 293.207031 261.394531 292.859375 260.609375 C 292.511719 259.828125 292.246094 259.019531 292.058594 258.183594 C 291.871094 257.347656 291.765625 256.5 291.746094 255.644531 C 291.722656 254.789062 291.785156 253.941406 291.933594 253.097656 C 292.078125 252.253906 292.304688 251.429688 292.613281 250.632812 C 292.921875 249.832031 293.304688 249.074219 293.765625 248.347656 C 294.222656 247.625 294.746094 246.953125 295.335938 246.332031 C 295.925781 245.714844 296.574219 245.15625 297.273438 244.664062 C 297.972656 244.171875 298.714844 243.75 299.496094 243.402344 C 300.28125 243.058594 301.089844 242.789062 301.925781 242.601562 C 302.757812 242.414062 303.605469 242.308594 304.460938 242.289062 C 305.316406 242.269531 306.167969 242.332031 307.011719 242.476562 C 307.855469 242.625 308.675781 242.851562 309.472656 243.160156 C 310.273438 243.46875 311.035156 243.851562 311.757812 244.308594 C 312.480469 244.765625 313.152344 245.289062 313.773438 245.882812 C 314.394531 246.472656 314.949219 247.117188 315.441406 247.816406 C 315.9375 248.515625 316.355469 249.257812 316.703125 250.039062 C 317.050781 250.824219 317.316406 251.632812 317.503906 252.46875 C 317.691406 253.304688 317.796875 254.148438 317.816406 255.003906 C 317.839844 255.859375 317.777344 256.710938 317.628906 257.554688 C 317.484375 258.398438 317.257812 259.21875 316.949219 260.019531 Z M 316.949219 260.019531 " clip-rule="nonzero"/></clipPath></defs><g clip-path="url(#1d7da9982e)"><g clip-path="url(#ee7399281c)"><g clip-path="url(#7cc6818e62)"><g clip-path="url(#26319f2a45)"><path fill="#4b5ae4" d="M 68.429688 8.824219 L -36.269531 280.261719 L 303.324219 411.25 L 408.023438 139.816406 Z M 68.429688 8.824219 " fill-opacity="1" fill-rule="nonzero"/></g></g></g></g><g clip-path="url(#8e30da496d)"><g clip-path="url(#6156cbd28f)"><g clip-path="url(#5cb96135c3)"><g clip-path="url(#8e7dea4f71)"><path fill="#4b5ae4" d="M 131.757812 89.496094 L 118.847656 122.964844 L 152.320312 135.875 L 165.230469 102.40625 Z M 131.757812 89.496094 " fill-opacity="1" fill-rule="nonzero"/></g></g></g></g><g clip-path="url(#1d653d8112)"><g clip-path="url(#4bdf478737)"><g clip-path="url(#10dfa6cc5c)"><g clip-path="url(#29ff2f1654)"><path fill="#4b5ae4" d="M 219.898438 91.0625 L 212.195312 111.035156 L 232.164062 118.734375 L 239.867188 98.765625 Z M 219.898438 91.0625 " fill-opacity="1" fill-rule="nonzero"/></g></g></g></g><g clip-path="url(#fb27a74474)"><g clip-path="url(#17d68380d2)"><g clip-path="url(#b625eaf199)"><g clip-path="url(#8339db07da)"><path fill="#4b5ae4" d="M 295.105469 233.5 L 282.957031 265 L 314.457031 277.152344 L 326.605469 245.652344 Z M 295.105469 233.5 " fill-opacity="1" fill-rule="nonzero"/></g></g></g></g><g fill="#ffffff" fill-opacity="1"><g transform="translate(116.53673, 232.381601)"><g><path d="M 5.8125 -4.09375 C 4.738281 -3.34375 3.550781 -2.972656 2.25 -2.984375 C 0.945312 -3.003906 -0.414062 -3.585938 -1.84375 -4.734375 C -3.269531 -5.890625 -4.695312 -7.753906 -6.125 -10.328125 C -7.5625 -12.898438 -8.925781 -16.378906 -10.21875 -20.765625 C -11.039062 -23.597656 -12.21875 -26.394531 -13.75 -29.15625 C -15.28125 -31.914062 -16.914062 -34.550781 -18.65625 -37.0625 C -20.394531 -39.570312 -22.023438 -41.882812 -23.546875 -44 C -25.078125 -46.113281 -26.242188 -47.957031 -27.046875 -49.53125 C -27.441406 -50.28125 -27.554688 -51.242188 -27.390625 -52.421875 C -27.234375 -53.609375 -26.398438 -54.734375 -24.890625 -55.796875 C -23.847656 -56.523438 -22.820312 -56.859375 -21.8125 -56.796875 C -20.8125 -56.742188 -19.914062 -56.476562 -19.125 -56 C -18.570312 -55.675781 -17.804688 -54.890625 -16.828125 -53.640625 C -15.847656 -52.390625 -14.710938 -50.894531 -13.421875 -49.15625 C -12.140625 -47.425781 -10.742188 -45.613281 -9.234375 -43.71875 C -7.734375 -41.820312 -6.15625 -40 -4.5 -38.25 C -2.851562 -36.507812 -1.1875 -35.035156 0.5 -33.828125 C 2.65625 -32.328125 4.769531 -30.726562 6.84375 -29.03125 C 8.914062 -27.332031 10.765625 -25.601562 12.390625 -23.84375 C 14.015625 -22.09375 15.226562 -20.375 16.03125 -18.6875 C 16.84375 -17 17.050781 -15.351562 16.65625 -13.75 C 16.269531 -12.15625 15.109375 -10.671875 13.171875 -9.296875 Z M 5.8125 -4.09375 "/></g></g></g><g fill="#ffffff" fill-opacity="1"><g transform="translate(139.218272, 215.683799)"><g><path d="M 8.109375 -2.90625 C 5.660156 -2.101562 3.710938 -2.007812 2.265625 -2.625 C 0.816406 -3.25 -0.257812 -4.21875 -0.96875 -5.53125 C -1.675781 -6.84375 -2.097656 -8.253906 -2.234375 -9.765625 C -2.367188 -11.285156 -2.328125 -12.53125 -2.109375 -13.5 C -1.984375 -14.09375 -1.8125 -14.957031 -1.59375 -16.09375 C -1.375 -17.238281 -1.328125 -18.753906 -1.453125 -20.640625 C -1.578125 -22.523438 -2.078125 -24.882812 -2.953125 -27.71875 C -3.828125 -30.5625 -5.304688 -34 -7.390625 -38.03125 C -7.929688 -39.125 -8.632812 -40.398438 -9.5 -41.859375 C -10.375 -43.316406 -11.234375 -44.859375 -12.078125 -46.484375 C -12.921875 -48.117188 -13.585938 -49.71875 -14.078125 -51.28125 C -14.566406 -52.84375 -14.71875 -54.285156 -14.53125 -55.609375 C -14.351562 -56.929688 -13.679688 -57.988281 -12.515625 -58.78125 C -11.960938 -59.132812 -11.414062 -59.40625 -10.875 -59.59375 C -10.03125 -59.894531 -9.210938 -60.039062 -8.421875 -60.03125 C -7.640625 -60.03125 -7.113281 -59.960938 -6.84375 -59.828125 C -6.238281 -60.316406 -5.523438 -60.828125 -4.703125 -61.359375 C -3.890625 -61.898438 -2.957031 -62.351562 -1.90625 -62.71875 C -1.8125 -62.75 -1.6875 -62.789062 -1.53125 -62.84375 C -1.382812 -62.894531 -1.265625 -62.941406 -1.171875 -62.984375 C 0.828125 -63.515625 3.035156 -63.472656 5.453125 -62.859375 C 7.867188 -62.242188 10.347656 -61.050781 12.890625 -59.28125 C 15.441406 -57.519531 17.875 -55.15625 20.1875 -52.1875 C 22.5 -49.226562 24.523438 -45.65625 26.265625 -41.46875 C 27.597656 -38.25 28.582031 -34.921875 29.21875 -31.484375 C 29.863281 -28.054688 30.015625 -24.785156 29.671875 -21.671875 C 29.335938 -18.566406 28.316406 -15.851562 26.609375 -13.53125 C 24.898438 -11.195312 22.972656 -9.378906 20.828125 -8.078125 C 18.691406 -6.785156 16.328125 -5.6875 13.734375 -4.78125 C 13.585938 -4.726562 13.441406 -4.675781 13.296875 -4.625 C 13.148438 -4.570312 13 -4.519531 12.84375 -4.46875 C 11.925781 -4.207031 11.128906 -3.957031 10.453125 -3.71875 C 9.785156 -3.488281 9.003906 -3.21875 8.109375 -2.90625 Z M 3.671875 -51.765625 C 2.859375 -51.535156 2.363281 -50.863281 2.1875 -49.75 C 2.019531 -48.632812 2.125 -47.289062 2.5 -45.71875 C 2.882812 -44.144531 3.429688 -42.535156 4.140625 -40.890625 C 4.859375 -39.242188 5.648438 -37.734375 6.515625 -36.359375 C 7.390625 -34.984375 8.289062 -33.925781 9.21875 -33.1875 C 10.144531 -32.457031 10.984375 -32.222656 11.734375 -32.484375 C 12.503906 -32.796875 12.972656 -33.515625 13.140625 -34.640625 C 13.304688 -35.765625 13.25 -37.125 12.96875 -38.71875 C 12.695312 -40.320312 12.257812 -41.914062 11.65625 -43.5 C 11.082031 -45.144531 10.363281 -46.648438 9.5 -48.015625 C 8.632812 -49.378906 7.691406 -50.429688 6.671875 -51.171875 C 5.660156 -51.910156 4.660156 -52.109375 3.671875 -51.765625 Z M 3.671875 -51.765625 "/></g></g></g><g fill="#ffffff" fill-opacity="1"><g transform="translate(178.839774, 202.440337)"><g><path d="M 4.09375 -10.015625 C 2.75 -13.203125 1.789062 -16.675781 1.21875 -20.4375 C 0.65625 -24.207031 0.4375 -28.003906 0.5625 -31.828125 C 0.6875 -35.660156 1.128906 -39.316406 1.890625 -42.796875 C 2.648438 -46.285156 3.675781 -49.328125 4.96875 -51.921875 C 5.6875 -53.359375 6.671875 -54.6875 7.921875 -55.90625 C 9.179688 -57.125 10.585938 -58.109375 12.140625 -58.859375 C 13.691406 -59.617188 15.253906 -60.007812 16.828125 -60.03125 C 17.410156 -60.03125 17.78125 -60.03125 17.9375 -60.03125 C 18.09375 -60.03125 18.25 -60.03125 18.40625 -60.03125 C 18.570312 -60.039062 18.941406 -60.046875 19.515625 -60.046875 C 22.210938 -60.078125 24.550781 -59.675781 26.53125 -58.84375 C 28.507812 -58.019531 29.992188 -56.925781 30.984375 -55.5625 C 31.972656 -54.207031 32.238281 -52.765625 31.78125 -51.234375 C 31.53125 -50.222656 30.878906 -49.550781 29.828125 -49.21875 C 28.773438 -48.894531 27.566406 -48.726562 26.203125 -48.71875 C 25.191406 -48.707031 24.195312 -48.738281 23.21875 -48.8125 C 22.238281 -48.882812 21.328125 -48.921875 20.484375 -48.921875 C 19.742188 -48.910156 19.125 -48.832031 18.625 -48.6875 C 18.132812 -48.550781 17.890625 -48.273438 17.890625 -47.859375 C 17.847656 -47.171875 18.300781 -46.710938 19.25 -46.484375 C 20.195312 -46.253906 21.351562 -46.078125 22.71875 -45.953125 C 24.09375 -45.835938 25.484375 -45.628906 26.890625 -45.328125 C 28.296875 -45.023438 29.472656 -44.457031 30.421875 -43.625 C 31.378906 -42.789062 31.867188 -41.535156 31.890625 -39.859375 C 31.898438 -38.429688 31.578125 -37.378906 30.921875 -36.703125 C 30.273438 -36.035156 29.410156 -35.59375 28.328125 -35.375 C 27.253906 -35.15625 26.132812 -35.050781 24.96875 -35.0625 C 23.8125 -35.082031 22.691406 -35.0625 21.609375 -35 C 20.535156 -34.9375 19.671875 -34.703125 19.015625 -34.296875 C 18.359375 -33.898438 18.035156 -33.203125 18.046875 -32.203125 C 18.054688 -30.242188 18.753906 -28.664062 20.140625 -27.46875 C 21.523438 -26.28125 23.429688 -25.695312 25.859375 -25.71875 C 26.066406 -25.71875 26.289062 -25.71875 26.53125 -25.71875 C 26.769531 -25.71875 26.992188 -25.75 27.203125 -25.8125 C 27.304688 -25.8125 27.4375 -25.8125 27.59375 -25.8125 C 27.757812 -25.8125 27.894531 -25.8125 28 -25.8125 C 30 -25.832031 31.6875 -25.226562 33.0625 -24 C 34.445312 -22.769531 35.460938 -21.195312 36.109375 -19.28125 C 36.765625 -17.363281 37.035156 -15.304688 36.921875 -13.109375 C 36.804688 -10.921875 36.257812 -8.863281 35.28125 -6.9375 C 34.300781 -5.007812 32.867188 -3.414062 30.984375 -2.15625 C 29.097656 -0.894531 26.675781 -0.25 23.71875 -0.21875 L 16.375 -0.15625 C 15.050781 -0.144531 13.578125 -0.566406 11.953125 -1.421875 C 10.335938 -2.273438 8.828125 -3.441406 7.421875 -4.921875 C 6.015625 -6.410156 4.90625 -8.109375 4.09375 -10.015625 Z M 4.09375 -10.015625 "/></g></g></g><g fill="#ffffff" fill-opacity="1"><g transform="translate(218.94025, 201.426349)"><g><path d="M 6.015625 2.203125 C 4.578125 1.671875 3.582031 0.96875 3.03125 0.09375 C 2.488281 -0.78125 2.25 -1.722656 2.3125 -2.734375 C 2.375 -3.742188 2.59375 -4.726562 2.96875 -5.6875 C 3.351562 -6.644531 3.75 -7.445312 4.15625 -8.09375 C 5.707031 -10.644531 7.578125 -13.035156 9.765625 -15.265625 C 11.960938 -17.503906 13.988281 -19.773438 15.84375 -22.078125 C 17.300781 -23.953125 18.691406 -25.8125 20.015625 -27.65625 C 21.347656 -29.5 22.726562 -31.367188 24.15625 -33.265625 C 24.5 -33.742188 25.164062 -34.6875 26.15625 -36.09375 C 27.15625 -37.507812 28.363281 -39.078125 29.78125 -40.796875 C 31.195312 -42.523438 32.71875 -44.082031 34.34375 -45.46875 C 35.976562 -46.863281 37.632812 -47.757812 39.3125 -48.15625 C 40.539062 -48.5 41.898438 -48.394531 43.390625 -47.84375 C 44.472656 -47.445312 45.445312 -46.851562 46.3125 -46.0625 C 47.1875 -45.269531 47.710938 -44.363281 47.890625 -43.34375 C 48.796875 -39.53125 49.09375 -35.703125 48.78125 -31.859375 C 48.46875 -28.015625 48.238281 -24.148438 48.09375 -20.265625 C 48.019531 -18.210938 48.113281 -15.890625 48.375 -13.296875 C 48.632812 -10.710938 48.894531 -8.09375 49.15625 -5.4375 C 49.425781 -2.78125 49.546875 -0.265625 49.515625 2.109375 C 49.484375 4.484375 49.1875 6.515625 48.625 8.203125 C 48.207031 9.460938 47.613281 10.691406 46.84375 11.890625 C 46.070312 13.097656 45.175781 14.019531 44.15625 14.65625 C 43.132812 15.300781 42 15.394531 40.75 14.9375 L 30.15625 11.046875 C 28.957031 10.609375 28.242188 9.703125 28.015625 8.328125 C 27.796875 6.953125 27.890625 5.316406 28.296875 3.421875 C 28.710938 1.523438 29.300781 -0.457031 30.0625 -2.53125 C 30.820312 -4.613281 31.609375 -6.570312 32.421875 -8.40625 C 33.242188 -10.25 33.945312 -11.773438 34.53125 -12.984375 C 35.125 -14.203125 35.429688 -14.921875 35.453125 -15.140625 C 35.503906 -15.566406 35.238281 -16 34.65625 -16.4375 C 34.082031 -16.875 33.375 -17.242188 32.53125 -17.546875 C 31.6875 -17.859375 30.816406 -18.050781 29.921875 -18.125 C 29.035156 -18.207031 28.375 -18.046875 27.9375 -17.640625 C 27.851562 -17.554688 27.75 -16.847656 27.625 -15.515625 C 27.507812 -14.179688 27.328125 -12.492188 27.078125 -10.453125 C 26.828125 -8.410156 26.472656 -6.304688 26.015625 -4.140625 C 25.566406 -1.984375 24.96875 -0.00390625 24.21875 1.796875 C 23.476562 3.609375 22.535156 4.960938 21.390625 5.859375 C 20.242188 6.753906 18.878906 6.914062 17.296875 6.34375 Z M 40.015625 -39.078125 C 39.234375 -39.242188 38.398438 -38.925781 37.515625 -38.125 C 36.628906 -37.332031 35.804688 -36.285156 35.046875 -34.984375 C 34.296875 -33.691406 33.664062 -32.421875 33.15625 -31.171875 C 32.65625 -29.929688 32.367188 -28.988281 32.296875 -28.34375 C 32.234375 -27.738281 32.457031 -27.175781 32.96875 -26.65625 C 33.488281 -26.132812 34.113281 -25.742188 34.84375 -25.484375 C 35.695312 -25.171875 36.582031 -25.050781 37.5 -25.125 C 38.425781 -25.207031 39.082031 -25.539062 39.46875 -26.125 C 39.832031 -26.664062 40.191406 -27.597656 40.546875 -28.921875 C 40.898438 -30.253906 41.15625 -31.679688 41.3125 -33.203125 C 41.46875 -34.722656 41.457031 -36.046875 41.28125 -37.171875 C 41.101562 -38.296875 40.679688 -38.929688 40.015625 -39.078125 Z M 40.015625 -39.078125 "/></g></g></g><g fill="#ffffff" fill-opacity="1"><g transform="translate(170.548147, 252.162118)"><g><path d="M 7.671875 3.203125 C 6.472656 2.734375 5.484375 2.101562 4.703125 1.3125 C 3.921875 0.519531 3.410156 -0.351562 3.171875 -1.3125 C 2.929688 -2.269531 2.992188 -3.25 3.359375 -4.25 L 5.875 -3.265625 C 5.644531 -2.390625 5.722656 -1.539062 6.109375 -0.71875 C 6.492188 0.09375 7.273438 0.726562 8.453125 1.1875 C 9.578125 1.625 10.570312 1.6875 11.4375 1.375 C 12.3125 1.0625 12.921875 0.46875 13.265625 -0.40625 C 13.535156 -1.113281 13.566406 -1.753906 13.359375 -2.328125 C 13.148438 -2.898438 12.800781 -3.410156 12.3125 -3.859375 C 11.820312 -4.304688 11.144531 -4.851562 10.28125 -5.5 C 9.207031 -6.257812 8.367188 -6.9375 7.765625 -7.53125 C 7.160156 -8.132812 6.734375 -8.867188 6.484375 -9.734375 C 6.242188 -10.597656 6.34375 -11.59375 6.78125 -12.71875 C 7.164062 -13.707031 7.757812 -14.484375 8.5625 -15.046875 C 9.363281 -15.617188 10.296875 -15.9375 11.359375 -16 C 12.429688 -16.0625 13.5625 -15.863281 14.75 -15.40625 C 16.445312 -14.738281 17.671875 -13.769531 18.421875 -12.5 C 19.171875 -11.238281 19.335938 -9.875 18.921875 -8.40625 L 16.328125 -9.421875 C 16.515625 -10.148438 16.390625 -10.90625 15.953125 -11.6875 C 15.515625 -12.46875 14.769531 -13.066406 13.71875 -13.484375 C 12.738281 -13.867188 11.832031 -13.921875 11 -13.640625 C 10.164062 -13.367188 9.570312 -12.773438 9.21875 -11.859375 C 8.96875 -11.203125 8.945312 -10.59375 9.15625 -10.03125 C 9.363281 -9.46875 9.695312 -8.972656 10.15625 -8.546875 C 10.613281 -8.117188 11.289062 -7.578125 12.1875 -6.921875 C 13.25 -6.117188 14.082031 -5.414062 14.6875 -4.8125 C 15.289062 -4.21875 15.722656 -3.484375 15.984375 -2.609375 C 16.253906 -1.734375 16.164062 -0.722656 15.71875 0.421875 C 15.375 1.304688 14.8125 2.046875 14.03125 2.640625 C 13.257812 3.234375 12.316406 3.597656 11.203125 3.734375 C 10.097656 3.867188 8.921875 3.691406 7.671875 3.203125 Z M 7.671875 3.203125 "/></g></g></g><g fill="#ffffff" fill-opacity="1"><g transform="translate(188.111123, 258.853335)"><g><path d="M 6.46875 -11.640625 C 7.09375 -12.429688 7.9375 -13.046875 9 -13.484375 C 10.070312 -13.921875 11.265625 -14.039062 12.578125 -13.84375 C 13.921875 -13.644531 15.09375 -13.144531 16.09375 -12.34375 C 17.09375 -11.539062 17.820312 -10.503906 18.28125 -9.234375 C 18.738281 -7.972656 18.847656 -6.570312 18.609375 -5.03125 C 18.390625 -3.5 17.875 -2.179688 17.0625 -1.078125 C 16.257812 0.015625 15.257812 0.8125 14.0625 1.3125 C 12.875 1.820312 11.609375 1.976562 10.265625 1.78125 C 8.972656 1.59375 7.875 1.132812 6.96875 0.40625 C 6.070312 -0.320312 5.429688 -1.15625 5.046875 -2.09375 L 3.578125 7.859375 L 1.0625 7.484375 L 4.375 -14.8125 L 6.890625 -14.4375 Z M 16.03125 -5.40625 C 16.207031 -6.539062 16.125 -7.566406 15.78125 -8.484375 C 15.445312 -9.398438 14.921875 -10.140625 14.203125 -10.703125 C 13.492188 -11.265625 12.671875 -11.613281 11.734375 -11.75 C 10.816406 -11.882812 9.929688 -11.785156 9.078125 -11.453125 C 8.234375 -11.117188 7.507812 -10.554688 6.90625 -9.765625 C 6.3125 -8.972656 5.929688 -8.019531 5.765625 -6.90625 C 5.597656 -5.757812 5.679688 -4.722656 6.015625 -3.796875 C 6.359375 -2.878906 6.890625 -2.132812 7.609375 -1.5625 C 8.328125 -1 9.144531 -0.648438 10.0625 -0.515625 C 11 -0.378906 11.890625 -0.472656 12.734375 -0.796875 C 13.578125 -1.128906 14.296875 -1.6875 14.890625 -2.46875 C 15.484375 -3.257812 15.863281 -4.238281 16.03125 -5.40625 Z M 16.03125 -5.40625 "/></g></g></g><g fill="#ffffff" fill-opacity="1"><g transform="translate(209.338575, 261.701328)"><g><path d="M 0.5 -7.78125 C 0.351562 -9.332031 0.539062 -10.722656 1.0625 -11.953125 C 1.582031 -13.191406 2.363281 -14.1875 3.40625 -14.9375 C 4.445312 -15.6875 5.644531 -16.125 7 -16.25 C 8.332031 -16.375 9.515625 -16.191406 10.546875 -15.703125 C 11.578125 -15.210938 12.375 -14.554688 12.9375 -13.734375 L 12.6875 -16.515625 L 15.265625 -16.75 L 16.65625 -1.515625 L 14.078125 -1.28125 L 13.8125 -4.109375 C 13.394531 -3.179688 12.71875 -2.378906 11.78125 -1.703125 C 10.84375 -1.035156 9.71875 -0.640625 8.40625 -0.515625 C 7.050781 -0.390625 5.796875 -0.613281 4.640625 -1.1875 C 3.492188 -1.757812 2.550781 -2.617188 1.8125 -3.765625 C 1.082031 -4.910156 0.644531 -6.25 0.5 -7.78125 Z M 13.375 -8.921875 C 13.269531 -10.066406 12.945312 -11.046875 12.40625 -11.859375 C 11.875 -12.671875 11.191406 -13.265625 10.359375 -13.640625 C 9.523438 -14.023438 8.640625 -14.175781 7.703125 -14.09375 C 6.753906 -14.007812 5.910156 -13.707031 5.171875 -13.1875 C 4.441406 -12.675781 3.882812 -11.972656 3.5 -11.078125 C 3.113281 -10.179688 2.972656 -9.160156 3.078125 -8.015625 C 3.179688 -6.835938 3.503906 -5.835938 4.046875 -5.015625 C 4.597656 -4.203125 5.28125 -3.601562 6.09375 -3.21875 C 6.90625 -2.84375 7.785156 -2.695312 8.734375 -2.78125 C 9.671875 -2.863281 10.515625 -3.164062 11.265625 -3.6875 C 12.023438 -4.21875 12.59375 -4.929688 12.96875 -5.828125 C 13.34375 -6.734375 13.476562 -7.765625 13.375 -8.921875 Z M 13.375 -8.921875 "/></g></g></g><g fill="#ffffff" fill-opacity="1"><g transform="translate(230.062879, 259.221812)"><g><path d="M 1 -13.609375 C 1.1875 -14.566406 1.613281 -15.390625 2.28125 -16.078125 C 2.945312 -16.773438 3.847656 -17.289062 4.984375 -17.625 L 5.703125 -15.09375 L 5.0625 -14.90625 C 2.332031 -14.125 1.390625 -12.25 2.234375 -9.28125 L 4.515625 -1.28125 L 2.078125 -0.59375 L -2.109375 -15.3125 L 0.328125 -16 Z M 1 -13.609375 "/></g></g></g><g fill="#ffffff" fill-opacity="1"><g transform="translate(241.790958, 255.900219)"><g><path d="M 9.6875 -4.515625 L 1.40625 -8.109375 L 4.25 -1.984375 L 1.953125 -0.90625 L -6.765625 -19.640625 L -4.46875 -20.71875 L 0.65625 -9.703125 L 3.140625 -18.34375 L 6.359375 -19.828125 L 3.046875 -9.875 L 12.828125 -5.96875 Z M 9.6875 -4.515625 "/></g></g></g></svg>